<svg width="28" height="25" viewBox="0 0 28 25" fill="none" xmlns="http://www.w3.org/2000/svg">
<path d="M25.1644 20.7083H18.25C18.0251 20.7083 17.8372 20.6323 17.6863 20.4803C17.5353 20.3283 17.4593 20.1399 17.4583 19.9151C17.4572 19.6903 17.5332 19.5024 17.6863 19.3514C17.8393 19.2005 18.0272 19.125 18.25 19.125H25.1644L22.441 16.37C22.2985 16.2148 22.2241 16.0312 22.2178 15.819C22.2115 15.6068 22.2853 15.4237 22.4395 15.2696C22.5936 15.1155 22.7783 15.0384 22.9936 15.0384C23.209 15.0384 23.3979 15.1155 23.5605 15.2696L27.3114 19.0221C27.5679 19.2775 27.6961 19.5757 27.6961 19.9167C27.6961 20.2576 27.5679 20.5563 27.3114 20.8128L23.5589 24.5637C23.3984 24.7179 23.21 24.7949 22.9936 24.7949C22.7772 24.7949 22.5925 24.7173 22.4395 24.5622C22.2864 24.407 22.2125 24.2239 22.2178 24.0128C22.2231 23.8016 22.297 23.6185 22.4395 23.4633L25.1644 20.7083ZM6.55863 8.04167H17.2762C17.5 8.04167 17.6879 7.96567 17.8399 7.81367C17.9919 7.66167 18.0679 7.47325 18.0679 7.24842C18.0679 7.02358 17.9919 6.83569 17.8399 6.68475C17.6879 6.53381 17.5 6.45833 17.2762 6.45833H6.55704C6.33326 6.45833 6.14538 6.53433 5.99338 6.68633C5.84138 6.83833 5.7659 7.02675 5.76696 7.25158C5.76802 7.47642 5.84349 7.66431 5.99338 7.81525C6.14326 7.9662 6.33168 8.04167 6.55863 8.04167ZM6.55863 14.375H12.5262C12.75 14.375 12.9379 14.299 13.0899 14.147C13.2419 13.995 13.3179 13.8066 13.3179 13.5817C13.3179 13.3569 13.2419 13.169 13.0899 13.0181C12.9379 12.8671 12.75 12.7917 12.5262 12.7917H6.55704C6.33326 12.7917 6.14538 12.8677 5.99338 13.0197C5.84138 13.1717 5.7659 13.3601 5.76696 13.5849C5.76802 13.8098 5.84349 13.9976 5.99338 14.1486C6.14326 14.2995 6.33168 14.375 6.55863 14.375ZM3.66588 20.7083L1.13254 23.2401C0.937265 23.4354 0.706626 23.4823 0.440626 23.381C0.174626 23.2786 0.041626 23.0839 0.041626 22.7968V2.68367C0.041626 1.97961 0.29232 1.37742 0.793709 0.877083C1.2951 0.37675 1.89676 0.126056 2.59871 0.125H21.2345C21.9375 0.125 22.5392 0.375694 23.0395 0.877083C23.5399 1.37847 23.7906 1.98014 23.7916 2.68208V9.5395C23.7916 9.80233 23.7051 10.0156 23.532 10.1792C23.3578 10.3438 23.143 10.423 22.8875 10.4167C21.5818 10.4452 20.3817 10.6447 19.287 11.0152C18.1914 11.3846 17.1453 12.0681 16.1489 13.0656C15.1588 14.062 14.4769 15.1081 14.1032 16.2037C13.7295 17.2994 13.5285 18.4996 13.5 19.8043C13.5063 20.0597 13.4218 20.2745 13.2466 20.4487C13.0714 20.6228 12.8635 20.7094 12.6228 20.7083H3.66588Z" fill="black"/>
</svg>
